# xmcd CD database file
#
# Track frame offsets:
#	150
#	28871
#	62768
#	88339
#	118357
#	147304
#	167250
#	193346
#	236032
#	260335
#
# Disc length: 3852 seconds
#
# Revision: 0
# Processed by: cddbd v1.5.2PL0 Copyright (c) Steve Scherf et al.
# Submitted via: CDex 1.70beta2
#
DISCID=950f0a0a
DTITLE=Luis Cide Jazz Fusion - Cuadro Natural
DYEAR=1999
DGENRE=Jazz
TTITLE0=la casa del puente norte
TTITLE1=primavera
TTITLE2=el arbol
TTITLE3=partido alto
TTITLE4=bailarina
TTITLE5=zamba de lozano
TTITLE6=candombe el pampero
TTITLE7=mientras puedas
TTITLE8=samba nostra
TTITLE9=buscando
EXTD=YEAR: 1999
EXTT0=
EXTT1=
EXTT2=
EXTT3=
EXTT4=
EXTT5=
EXTT6=
EXTT7=
EXTT8=
EXTT9=
PLAYORDER=
